{
  "accessors": [
    {
      "bufferView": 2,
      "componentType": 5126,
      "count": 2928,
      "max": [
        27.489295959472656,
        133.2486572265625,
        9.59097671508789
      ],
      "min": [
        -27.489295959472656,
        -133.2486572265625,
        -58.59410095214844
      ],
      "type": "VEC3"
    },
    {
      "bufferView": 2,
      "byteOffset": 35136,
      "componentType": 5126,
      "count": 2928,
      "max": [
        1.0,
        1.0,
        1.0
      ],
      "min": [
        -1.0,
        -1.0,
        -1.0
      ],
      "type": "VEC3"
    },
    {
      "bufferView": 1,
      "componentType": 5126,
      "count": 2928,
      "max": [
        0.997249186038971,
        0.999500036239624
      ],
      "min": [
        0.0005000000237487257,
        0.0005000000237487257
      ],
      "type": "VEC2"
    },
    {
      "bufferView": 0,
      "componentType": 5125,
      "count": 7464,
      "type": "SCALAR"
    },
    {
      "bufferView": 2,
      "byteOffset": 70272,
      "componentType": 5126,
      "count": 6065,
      "max": [
        28.355331420898438,
        90.27481842041016,
        4.174251556396484
      ],
      "min": [
        -28.355331420898438,
        -90.27482604980469,
        -44.8987922668457
      ],
      "type": "VEC3"
    },
    {
      "bufferView": 2,
      "byteOffset": 143052,
      "componentType": 5126,
      "count": 6065,
      "max": [
        1.0,
        1.0,
        1.0
      ],
      "min": [
        -1.0,
        -1.0,
        -1.0
      ],
      "type": "VEC3"
    },
    {
      "bufferView": 1,
      "byteOffset": 23424,
      "componentType": 5126,
      "count": 6065,
      "max": [
        0.9994999766349792,
        0.9994999766349792
      ],
      "min": [
        0.0005000000237487257,
        0.0005000000237487257
      ],
      "type": "VEC2"
    },
    {
      "bufferView": 0,
      "byteOffset": 29856,
      "componentType": 5125,
      "count": 13176,
      "type": "SCALAR"
    },
    {
      "bufferView": 2,
      "byteOffset": 215832,
      "componentType": 5126,
      "count": 5215,
      "max": [
        153.406494140625,
        4.899759292602539,
        0.19059371948242188
      ],
      "min": [
        -76.34223937988281,
        -30.79835319519043,
        -32.03511428833008
      ],
      "type": "VEC3"
    },
    {
      "bufferView": 2,
      "byteOffset": 278412,
      "componentType": 5126,
      "count": 5215,
      "max": [
        0.9653093218803406,
        0.9649620652198792,
        0.9652801156044006
      ],
      "min": [
        -0.9654094576835632,
        -0.9649617075920105,
        -0.9652801752090454
      ],
      "type": "VEC3"
    },
    {
      "bufferView": 1,
      "byteOffset": 71944,
      "componentType": 5126,
      "count": 5215,
      "max": [
        0.9583985209465027,
        0.999500036239624
      ],
      "min": [
        0.0005000000237487257,
        0.0005000000237487257
      ],
      "type": "VEC2"
    },
    {
      "bufferView": 0,
      "byteOffset": 82560,
      "componentType": 5125,
      "count": 15156,
      "type": "SCALAR"
    },
    {
      "bufferView": 2,
      "byteOffset": 340992,
      "componentType": 5126,
      "count": 34245,
      "max": [
        21.307449340820313,
        83.2267837524414,
        44.8987922668457
      ],
      "min": [
        -21.307453155517578,
        -83.22679901123047,
        9.079244613647461
      ],
      "type": "VEC3"
    },
    {
      "bufferView": 2,
      "byteOffset": 751932,
      "componentType": 5126,
      "count": 34245,
      "max": [
        0.998262345790863,
        0.9630759954452515,
        1.0
      ],
      "min": [
        -1.0,
        -0.963036835193634,
        -0.9996247291564941
      ],
      "type": "VEC3"
    },
    {
      "bufferView": 1,
      "byteOffset": 113664,
      "componentType": 5126,
      "count": 34245,
      "max": [
        0.9994999766349792,
        0.9994999766349792
      ],
      "min": [
        0.0005000000237487257,
        0.0005000000237487257
      ],
      "type": "VEC2"
    },
    {
      "bufferView": 0,
      "byteOffset": 143184,
      "componentType": 5125,
      "count": 82026,
      "type": "SCALAR"
    },
    {
      "bufferView": 2,
      "byteOffset": 1162872,
      "componentType": 5126,
      "count": 9952,
      "max": [
        382.2054443359375,
        2645.629638671875,
        229.5238494873047
      ],
      "min": [
        -1040.4486083984375,
        -44.868038177490234,
        -887.4983520507813
      ],
      "type": "VEC3"
    },
    {
      "bufferView": 2,
      "byteOffset": 1282296,
      "componentType": 5126,
      "count": 9952,
      "max": [
        0.927510142326355,
        0.9276038408279419,
        1.0
      ],
      "min": [
        -0.9274768233299255,
        -0.9276038408279419,
        -0.9997117519378662
      ],
      "type": "VEC3"
    },
    {
      "bufferView": 1,
      "byteOffset": 387624,
      "componentType": 5126,
      "count": 9952,
      "max": [
        0.9990260601043701,
        0.999500036239624
      ],
      "min": [
        0.0005000000237487257,
        0.0005000000237487257
      ],
      "type": "VEC2"
    },
    {
      "bufferView": 0,
      "byteOffset": 471288,
      "componentType": 5125,
      "count": 21024,
      "type": "SCALAR"
    },
    {
      "bufferView": 2,
      "byteOffset": 1401720,
      "componentType": 5126,
      "count": 296,
      "max": [
        9.104351997375488,
        134.37437438964844,
        0.6777639389038086
      ],
      "min": [
        -9.104340553283691,
        -134.37437438964844,
        -20.944961547851563
      ],
      "type": "VEC3"
    },
    {
      "bufferView": 2,
      "byteOffset": 1405272,
      "componentType": 5126,
      "count": 296,
      "max": [
        1.0,
        0.9584064483642578,
        0.958389937877655
      ],
      "min": [
        -1.0,
        -0.9584064483642578,
        -0.9583899974822998
      ],
      "type": "VEC3"
    },
    {
      "bufferView": 1,
      "byteOffset": 467240,
      "componentType": 5126,
      "count": 296,
      "max": [
        0.9886502027511597,
        0.9994999766349792
      ],
      "min": [
        0.0005000000237487257,
        0.0005000000237487257
      ],
      "type": "VEC2"
    },
    {
      "bufferView": 0,
      "byteOffset": 555384,
      "componentType": 5125,
      "count": 552,
      "type": "SCALAR"
    },
    {
      "bufferView": 2,
      "byteOffset": 1408824,
      "componentType": 5126,
      "count": 144,
      "max": [
        44.567989349365234,
        438.9117431640625,
        14.989398956298828
      ],
      "min": [
        -5.220419883728027,
        -4.521016597747803,
        -110.31974792480469
      ],
      "type": "VEC3"
    },
    {
      "bufferView": 2,
      "byteOffset": 1410552,
      "componentType": 5126,
      "count": 144,
      "max": [
        0.8660032749176025,
        0.9999716877937317,
        1.0
      ],
      "min": [
        -0.8660035729408264,
        -0.9999716877937317,
        -1.0
      ],
      "type": "VEC3"
    },
    {
      "bufferView": 1,
      "byteOffset": 469608,
      "componentType": 5126,
      "count": 144,
      "max": [
        0.9994999766349792,
        0.9910222887992859
      ],
      "min": [
        0.0005000000237487257,
        0.0005000000237487257
      ],
      "type": "VEC2"
    },
    {
      "bufferView": 0,
      "byteOffset": 557592,
      "componentType": 5125,
      "count": 240,
      "type": "SCALAR"
    },
    {
      "bufferView": 2,
      "byteOffset": 1412280,
      "componentType": 5126,
      "count": 110,
      "max": [
        27.489295959472656,
        133.2486572265625,
        -3.096660614013672
      ],
      "min": [
        -27.489295959472656,
        -133.2486572265625,
        -17.16556167602539
      ],
      "type": "VEC3"
    },
    {
      "bufferView": 2,
      "byteOffset": 1413600,
      "componentType": 5126,
      "count": 110,
      "max": [
        0.0004859602195210755,
        0.28546252846717834,
        1.0
      ],
      "min": [
        -0.00048596045235171914,
        -0.2854626178741455,
        0.9583898782730103
      ],
      "type": "VEC3"
    },
    {
      "bufferView": 1,
      "byteOffset": 470760,
      "componentType": 5126,
      "count": 110,
      "max": [
        0.6278684139251709,
        1.0
      ],
      "min": [
        0.320412278175354,
        0.0
      ],
      "type": "VEC2"
    },
    {
      "bufferView": 0,
      "byteOffset": 558552,
      "componentType": 5125,
      "count": 348,
      "type": "SCALAR"
    },
    {
      "bufferView": 2,
      "byteOffset": 1414920,
      "componentType": 5126,
      "count": 384,
      "max": [
        364.9508972167969,
        2628.375,
        -20.793567657470703
      ],
      "min": [
        -1023.194091796875,
        -27.61347198486328,
        -92.3467025756836
      ],
      "type": "VEC3"
    },
    {
      "bufferView": 2,
      "byteOffset": 1419528,
      "componentType": 5126,
      "count": 384,
      "max": [
        0.9240896701812744,
        0.924146831035614,
        0.0010791159002110362
      ],
      "min": [
        -0.9241397380828857,
        -0.9241045117378235,
        -0.0009720797534100711
      ],
      "type": "VEC3"
    },
    {
      "bufferView": 1,
      "byteOffset": 471640,
      "componentType": 5126,
      "count": 384,
      "max": [
        0.999500036239624,
        0.967690646648407
      ],
      "min": [
        0.0005000000237487257,
        0.0005000000237487257
      ],
      "type": "VEC2"
    },
    {
      "bufferView": 0,
      "byteOffset": 559944,
      "componentType": 5125,
      "count": 960,
      "type": "SCALAR"
    },
    {
      "bufferView": 2,
      "byteOffset": 1424136,
      "componentType": 5126,
      "count": 1344,
      "max": [
        18.71413803100586,
        80.63333129882813,
        29.937713623046875
      ],
      "min": [
        -18.71411895751953,
        -80.63334655761719,
        26.487503051757813
      ],
      "type": "VEC3"
    },
    {
      "bufferView": 2,
      "byteOffset": 1440264,
      "componentType": 5126,
      "count": 1344,
      "max": [
        0.9244138598442078,
        0.9251492023468018,
        0.003714937251061201
      ],
      "min": [
        -0.9247252345085144,
        -0.9251492023468018,
        -0.004159764852374792
      ],
      "type": "VEC3"
    },
    {
      "bufferView": 1,
      "byteOffset": 474712,
      "componentType": 5126,
      "count": 1344,
      "max": [
        0.999497652053833,
        0.999500036239624
      ],
      "min": [
        0.0005000000237487257,
        0.0005000000237487257
      ],
      "type": "VEC2"
    },
    {
      "bufferView": 0,
      "byteOffset": 563784,
      "componentType": 5125,
      "count": 3744,
      "type": "SCALAR"
    }
  ],
  "asset": {
    "extras": {
      "author": "Stay Happy (https://sketchfab.com/9911alice9911)",
      "license": "CC-BY-NC-4.0 (http://creativecommons.org/licenses/by-nc/4.0/)",
      "source": "https://sketchfab.com/3d-models/bridge-43320fc1c92648b6a7018e65351d7ca3",
      "title": "Bridge"
    },
    "generator": "Sketchfab-15.30.0",
    "version": "2.0"
  },
  "bufferViews": [
    {
      "buffer": 0,
      "byteLength": 578760,
      "name": "floatBufferViews",
      "target": 34963
    },
    {
      "buffer": 0,
      "byteLength": 485464,
      "byteOffset": 578760,
      "byteStride": 8,
      "name": "floatBufferViews",
      "target": 34962
    },
    {
      "buffer": 0,
      "byteLength": 1456392,
      "byteOffset": 1064224,
      "byteStride": 12,
      "name": "floatBufferViews",
      "target": 34962
    }
  ],
  "buffers": [
    {
      "byteLength": 2520616,
      "uri": "scene.bin"
    }
  ],
  "materials": [
    {
      "doubleSided": true,
      "name": "Scene_-_Root",
      "pbrMetallicRoughness": {
        "metallicFactor": 0.0,
        "roughnessFactor": 0.6
      }
    }
  ],
  "meshes": [
    {
      "name": "MainWall_0001__0",
      "primitives": [
        {
          "attributes": {
            "NORMAL": 1,
            "POSITION": 0,
            "TEXCOORD_0": 2
          },
          "indices": 3,
          "material": 0,
          "mode": 4
        }
      ]
    },
    {
      "name": "Parrapet_0001__0",
      "primitives": [
        {
          "attributes": {
            "NORMAL": 5,
            "POSITION": 4,
            "TEXCOORD_0": 6
          },
          "indices": 7,
          "material": 0,
          "mode": 4
        }
      ]
    },
    {
      "name": "Ropes_0001__0",
      "primitives": [
        {
          "attributes": {
            "NORMAL": 9,
            "POSITION": 8,
            "TEXCOORD_0": 10
          },
          "indices": 11,
          "material": 0,
          "mode": 4
        }
      ]
    },
    {
      "name": "Towers_0001__0",
      "primitives": [
        {
          "attributes": {
            "NORMAL": 13,
            "POSITION": 12,
            "TEXCOORD_0": 14
          },
          "indices": 15,
          "material": 0,
          "mode": 4
        }
      ]
    },
    {
      "name": "Towers_0002__0",
      "primitives": [
        {
          "attributes": {
            "NORMAL": 17,
            "POSITION": 16,
            "TEXCOORD_0": 18
          },
          "indices": 19,
          "material": 0,
          "mode": 4
        }
      ]
    },
    {
      "name": "Parrapet_0002__0",
      "primitives": [
        {
          "attributes": {
            "NORMAL": 21,
            "POSITION": 20,
            "TEXCOORD_0": 22
          },
          "indices": 23,
          "material": 0,
          "mode": 4
        }
      ]
    },
    {
      "name": "Parrapet_0003__0",
      "primitives": [
        {
          "attributes": {
            "NORMAL": 25,
            "POSITION": 24,
            "TEXCOORD_0": 26
          },
          "indices": 27,
          "material": 0,
          "mode": 4
        }
      ]
    },
    {
      "name": "Floor_0001__0",
      "primitives": [
        {
          "attributes": {
            "NORMAL": 29,
            "POSITION": 28,
            "TEXCOORD_0": 30
          },
          "indices": 31,
          "material": 0,
          "mode": 4
        }
      ]
    },
    {
      "name": "Windows_0001__0",
      "primitives": [
        {
          "attributes": {
            "NORMAL": 33,
            "POSITION": 32,
            "TEXCOORD_0": 34
          },
          "indices": 35,
          "material": 0,
          "mode": 4
        }
      ]
    },
    {
      "name": "Windows_0002__0",
      "primitives": [
        {
          "attributes": {
            "NORMAL": 37,
            "POSITION": 36,
            "TEXCOORD_0": 38
          },
          "indices": 39,
          "material": 0,
          "mode": 4
        }
      ]
    }
  ],
  "nodes": [
    {
      "children": [
        1
      ],
      "matrix": [
        1.0,
        0.0,
        0.0,
        0.0,
        0.0,
        2.220446049250313e-16,
        -1.0,
        0.0,
        0.0,
        1.0,
        2.220446049250313e-16,
        0.0,
        0.0,
        0.0,
        0.0,
        1.0
      ],
      "name": "Sketchfab_model"
    },
    {
      "children": [
        2
      ],
      "matrix": [
        0.009999999776482582,
        0.0,
        0.0,
        0.0,
        0.0,
        0.0,
        0.009999999776482582,
        0.0,
        0.0,
        -0.009999999776482582,
        0.0,
        0.0,
        0.0,
        0.0,
        0.0,
        1.0
      ],
      "name": "49b9b12a211d4f18a1a7f6976a5965da.fbx"
    },
    {
      "children": [
        3,
        5,
        7,
        10,
        12,
        14,
        16,
        18,
        20,
        22
      ],
      "name": "RootNode"
    },
    {
      "children": [
        4
      ],
      "matrix": [
        1.0,
        0.0,
        0.0,
        0.0,
        0.0,
        2.220446049250313e-16,
        -1.0,
        0.0,
        0.0,
        1.0,
        2.220446049250313e-16,
        0.0,
        0.4111490249633789,
        67.63572692871094,
        1.5704078674316406,
        1.0
      ],
      "name": "MainWall_0001"
    },
    {
      "mesh": 0,
      "name": "MainWall_0001__0"
    },
    {
      "children": [
        6
      ],
      "matrix": [
        1.0,
        0.0,
        0.0,
        0.0,
        0.0,
        2.220446049250313e-16,
        -1.0,
        0.0,
        0.0,
        1.0,
        2.220446049250313e-16,
        0.0,
        0.4111490249633789,
        67.63572692871094,
        1.5704078674316406,
        1.0
      ],
      "name": "Parrapet_0001"
    },
    {
      "mesh": 1,
      "name": "Parrapet_0001__0"
    },
    {
      "children": [
        8
      ],
      "matrix": [
        1.6292068460987963e-07,
        0.0,
        0.9999999999999867,
        0.0,
        -4.371138822550499e-08,
        0.999999999999999,
        7.121489295963928e-15,
        0.0,
        -0.9999999999999858,
        -4.371138822550557e-08,
        1.6292068460987963e-07,
        0.0,
        -15.556212425231934,
        85.61979675292969,
        1.41778564453125,
        1.0
      ],
      "name": "Ropes_0001"
    },
    {
      "children": [
        9
      ],
      "matrix": [
        1.0,
        0.0,
        -0.0,
        0.0,
        0.0,
        1.0,
        0.0,
        0.0,
        0.0,
        0.0,
        1.0,
        0.0,
        -38.316368103027344,
        7.345817565917969,
        -7.542872708654613e-07,
        1.0
      ],
      "name": "Object_8"
    },
    {
      "mesh": 2,
      "name": "Ropes_0001__0"
    },
    {
      "children": [
        11
      ],
      "matrix": [
        1.0,
        0.0,
        0.0,
        0.0,
        0.0,
        2.220446049250313e-16,
        -1.0,
        0.0,
        0.0,
        1.0,
        2.220446049250313e-16,
        0.0,
        0.4111490249633789,
        67.63572692871094,
        1.5704078674316406,
        1.0
      ],
      "name": "Towers_0001"
    },
    {
      "mesh": 3,
      "name": "Towers_0001__0"
    },
    {
      "children": [
        13
      ],
      "matrix": [
        0.08131002594891679,
        2.4339973572059132e-18,
        0.03284686807327905,
        0.0,
        0.03284686807327905,
        -1.9471978857647306e-17,
        -0.08131002594891679,
        0.0,
        2.4339973572059132e-18,
        0.08769399672746658,
        -1.9471978857647306e-17,
        0.0,
        -15.502100944519043,
        92.68431091308594,
        118.22162628173828,
        1.0
      ],
      "name": "Towers_0002"
    },
    {
      "mesh": 4,
      "name": "Towers_0002__0"
    },
    {
      "children": [
        15
      ],
      "matrix": [
        1.0,
        0.0,
        0.0,
        0.0,
        0.0,
        2.220446049250313e-16,
        -1.0,
        0.0,
        0.0,
        1.0,
        2.220446049250313e-16,
        0.0,
        0.4111490249633789,
        67.63572692871094,
        1.5704078674316406,
        1.0
      ],
      "name": "Parrapet_0002"
    },
    {
      "mesh": 5,
      "name": "Parrapet_0002__0"
    },
    {
      "children": [
        17
      ],
      "matrix": [
        0.39645901322364807,
        0.0,
        0.0,
        0.0,
        0.0,
        8.80315849602127e-17,
        -0.39645901322364807,
        0.0,
        0.0,
        0.39645901322364807,
        8.80315849602127e-17,
        0.0,
        -7.436830520629883,
        63.134342193603516,
        87.63655853271484,
        1.0
      ],
      "name": "Parrapet_0003"
    },
    {
      "mesh": 6,
      "name": "Parrapet_0003__0"
    },
    {
      "children": [
        19
      ],
      "matrix": [
        1.0,
        0.0,
        0.0,
        0.0,
        0.0,
        2.220446049250313e-16,
        -1.0,
        0.0,
        0.0,
        1.0,
        2.220446049250313e-16,
        0.0,
        0.4111490249633789,
        67.63572692871094,
        1.5704078674316406,
        1.0
      ],
      "name": "Floor_0001"
    },
    {
      "mesh": 7,
      "name": "Floor_0001__0"
    },
    {
      "children": [
        21
      ],
      "matrix": [
        0.08131003216933785,
        -2.4339973572059132e-18,
        0.03284685267507625,
        0.0,
        0.03284685267507625,
        1.9471978857647306e-17,
        -0.08131003216933785,
        0.0,
        -2.4339973572059132e-18,
        0.08769399672746658,
        1.9471978857647306e-17,
        0.0,
        -15.502100944519043,
        92.68431091308594,
        118.22162628173828,
        1.0
      ],
      "name": "Windows_0001"
    },
    {
      "mesh": 8,
      "name": "Windows_0001__0"
    },
    {
      "children": [
        23
      ],
      "matrix": [
        1.0,
        0.0,
        0.0,
        0.0,
        0.0,
        2.220446049250313e-16,
        -1.0,
        0.0,
        0.0,
        1.0,
        2.220446049250313e-16,
        0.0,
        0.4111490249633789,
        67.63572692871094,
        1.5704078674316406,
        1.0
      ],
      "name": "Windows_0002"
    },
    {
      "mesh": 9,
      "name": "Windows_0002__0"
    }
  ],
  "scene": 0,
  "scenes": [
    {
      "name": "Sketchfab_Scene",
      "nodes": [
        0
      ]
    }
  ]
}
